<svg xmlns="http://www.w3.org/2000/svg" viewBox="0 0 64 64" width="64" height="64">
  <defs>
    <radialGradient id="ballGrad" cx="38%" cy="32%" r="68%">
      <stop offset="0%" stop-color="#52d68a"/>
      <stop offset="100%" stop-color="#1a9e5f"/>
    </radialGradient>
    <clipPath id="ballClip">
      <circle cx="32" cy="32" r="29"/>
    </clipPath>
  </defs>
  <circle cx="32" cy="32" r="30" fill="#1a1a1a"/>
  <circle cx="32" cy="32" r="29" fill="url(#ballGrad)"/>
  <g clip-path="url(#ballClip)" fill="#1a1a1a">
    <polygon points="32,20 40,26 37,35 27,35 24,26"/>
    <polygon points="32,5 40,11 38,20 26,20 24,11"/>
    <polygon points="49,15 53,25 46,30 40,26 41,16"/>
    <polygon points="53,37 48,47 40,47 37,35 46,30"/>
    <polygon points="40,55 32,59 24,55 27,35 37,35"/>
    <polygon points="11,37 16,30 24,26 27,35 18,47"/>
    <polygon points="15,15 24,11 26,20 24,26 16,30"/>
  </g>
  <ellipse cx="22" cy="19" rx="7" ry="4" fill="white" opacity="0.18" transform="rotate(-30 22 19)"/>
  <circle cx="32" cy="32" r="30" fill="none" stroke="#1a1a1a" stroke-width="1.5"/>
</svg>
